<svg width="17" height="19" viewBox="0 0 17 19" fill="none" xmlns="http://www.w3.org/2000/svg">
<path d="M15.3179 13.0474C14.9996 12.0808 14.8369 11.0698 14.8359 10.0522V7.53769C14.8591 5.94441 14.2905 4.39917 13.2402 3.2009C12.1934 2.00075 10.7406 1.22908 9.16011 1.03377C8.28671 0.943154 7.39821 1.03377 6.55502 1.31945C5.71182 1.59002 4.94414 2.04182 4.29727 2.64465C3.64717 3.23192 3.12902 3.95039 2.777 4.75263C2.42323 5.55457 2.23859 6.42083 2.23459 7.29732V10.066C2.23274 11.0795 2.07005 12.0862 1.75258 13.0487L1 15.2749L1.60282 16.103H6.01386C6.01386 16.765 6.28444 17.4119 6.75134 17.88C7.21699 18.3457 7.86511 18.6175 8.52834 18.6175C9.19031 18.6175 9.83718 18.3469 10.3041 17.88C10.771 17.4131 11.0428 16.765 11.0428 16.103H15.4539L16.0554 15.2749L15.3179 13.0474ZM9.41559 17.0079C9.2998 17.126 9.1618 17.22 9.00953 17.2846C8.85727 17.3492 8.69373 17.383 8.52834 17.3842C8.36265 17.383 8.19883 17.3491 8.04633 17.2843C7.89383 17.2195 7.75568 17.1251 7.63984 17.0066C7.52151 16.891 7.42723 16.753 7.36244 16.6007C7.29764 16.4485 7.26361 16.2849 7.26229 16.1194H9.77803C9.78328 16.2845 9.75384 16.4489 9.69163 16.6019C9.62942 16.755 9.53581 16.8933 9.41684 17.0079H9.41559ZM2.47496 14.8559L2.94186 13.4539C3.30596 12.3617 3.49415 11.2186 3.49938 10.0673V7.29732C3.49938 6.58878 3.6504 5.89661 3.93608 5.26358C4.22176 4.61671 4.62825 4.0441 5.15556 3.57719C5.68288 3.09645 6.3008 2.734 6.96277 2.52383C7.63984 2.2973 8.34712 2.22179 9.03929 2.2973C10.3079 2.46411 11.471 3.09112 12.3076 4.0592C13.1445 5.02848 13.5944 6.27243 13.5712 7.55279V10.0824C13.5712 11.2264 13.7524 12.3703 14.1287 13.469L14.5956 14.8697H2.47622V14.8546L2.47496 14.8559Z" fill="white" stroke="white" stroke-width="0.2"/>
</svg>
