<svg width="16" height="15" viewBox="0 0 16 15" fill="none" xmlns="http://www.w3.org/2000/svg">
<g opacity="0.5">
<path d="M8 0C3.85826 0 0.5 3.35826 0.5 7.5C0.5 11.6417 3.85826 15 8 15C12.1417 15 15.5 11.6417 15.5 7.5C15.5 3.35826 12.1417 0 8 0ZM8 13.7277C4.56138 13.7277 1.77232 10.9386 1.77232 7.5C1.77232 4.06138 4.56138 1.27232 8 1.27232C11.4386 1.27232 14.2277 4.06138 14.2277 7.5C14.2277 10.9386 11.4386 13.7277 8 13.7277Z" fill="white"/>
<path d="M7.31885 4.8214C7.31885 5.01515 7.39068 5.20096 7.51855 5.33796C7.64641 5.47496 7.81984 5.55192 8.00067 5.55192C8.1815 5.55192 8.35492 5.47496 8.48278 5.33796C8.61065 5.20096 8.68248 5.01515 8.68248 4.8214C8.68248 4.62766 8.61065 4.44184 8.48278 4.30485C8.35492 4.16785 8.1815 4.09088 8.00067 4.09088C7.81984 4.09088 7.64641 4.16785 7.51855 4.30485C7.39068 4.44184 7.31885 4.62766 7.31885 4.8214V4.8214ZM8.34157 6.52595H7.65976C7.59726 6.52595 7.54612 6.58074 7.54612 6.6477V10.7873C7.54612 10.8543 7.59726 10.9091 7.65976 10.9091H8.34157C8.40407 10.9091 8.45521 10.8543 8.45521 10.7873V6.6477C8.45521 6.58074 8.40407 6.52595 8.34157 6.52595Z" fill="white"/>
</g>
</svg>
