<svg width="26" height="26" viewBox="0 0 26 26" fill="none" xmlns="http://www.w3.org/2000/svg">
<path d="M25 22.6295V13.3536C25.0001 12.7083 24.8667 12.0697 24.6082 11.477C24.3497 10.8844 23.9713 10.3501 23.4964 9.90687L14.6488 1.64797C14.2032 1.23185 13.6132 1 13 1C12.3868 1 11.7968 1.23185 11.3512 1.64797L2.5036 9.90687C2.02867 10.3501 1.65034 10.8844 1.3918 11.477C1.13325 12.0697 0.999931 12.7083 1 13.3536V22.6295C1 23.2582 1.25286 23.8611 1.70294 24.3057C2.15303 24.7502 2.76348 25 3.4 25H22.6C23.2365 25 23.847 24.7502 24.2971 24.3057C24.7471 23.8611 25 23.2582 25 22.6295Z" stroke="#18A668" stroke-width="2" stroke-linecap="round" stroke-linejoin="round"/>
</svg>
