<svg width="12" height="20" viewBox="0 0 12 20" fill="none" xmlns="http://www.w3.org/2000/svg">
<path fill-rule="evenodd" clip-rule="evenodd" d="M6 0.5C7.65685 0.5 9 1.84315 9 3.5V10.5C9 12.1569 7.65685 13.5 6 13.5C4.34315 13.5 3 12.1569 3 10.5V3.5C3 1.84315 4.34315 0.5 6 0.5ZM11.25 7C10.8358 7 10.5 7.33579 10.5 7.75V10.5C10.5 12.9853 8.48528 15 6 15C3.51472 15 1.5 12.9853 1.5 10.5V7.75C1.5 7.33579 1.16421 7 0.75 7C0.335786 7 0 7.33579 0 7.75V10.5C0.00148134 13.5226 2.25111 16.0722 5.25 16.45V18H3.25C2.83579 18 2.5 18.3358 2.5 18.75C2.5 19.1642 2.83579 19.5 3.25 19.5H8.75C9.16421 19.5 9.5 19.1642 9.5 18.75C9.5 18.3358 9.16421 18 8.75 18H6.75V16.45C9.74889 16.0722 11.9985 13.5226 12 10.5V7.75C12 7.33579 11.6642 7 11.25 7Z" fill="#C7C7CC"/>
</svg>
