<svg width="14" height="15" viewBox="0 0 14 15" fill="none" xmlns="http://www.w3.org/2000/svg">
<path fill-rule="evenodd" clip-rule="evenodd" d="M13.7431 13.0743L9.91009 9.2398C10.5972 8.3027 10.9652 7.16978 10.9601 6.0078C10.947 2.97466 8.49372 0.517819 5.46059 0.5003C4.00907 0.493733 2.61522 1.06796 1.58953 2.09505C0.563845 3.12214 -0.00846493 4.51679 9.46502e-05 5.9683C0.0132044 9.00172 2.4667 11.4588 5.50009 11.4763C6.6668 11.4814 7.80387 11.109 8.74159 10.4148L8.74559 10.4118L12.5751 14.2433C12.7821 14.4605 13.0907 14.5484 13.3811 14.473C13.6716 14.3976 13.8983 14.1706 13.9735 13.8801C14.0487 13.5896 13.9605 13.2812 13.7431 13.0743ZM5.49602 10.3782C3.06943 10.3642 1.10667 8.3988 1.09602 5.97219C1.08947 4.81114 1.54735 3.69564 2.36775 2.87403C3.18814 2.05242 4.30295 1.59287 5.46402 1.59769C7.8906 1.61165 9.85336 3.57709 9.86402 6.00369C9.87057 7.16475 9.41268 8.28024 8.59229 9.10186C7.77189 9.92347 6.65708 10.383 5.49602 10.3782Z" fill="black" fill-opacity="0.36"/>
</svg>
