<svg width="10" height="10" viewBox="0 0 10 10" fill="none" xmlns="http://www.w3.org/2000/svg">
<rect width="10" height="10" fill="white"/>
<path d="M7.08301 1.24947C7.19244 1.14004 7.32236 1.05323 7.46534 0.994006C7.60833 0.93478 7.76158 0.904297 7.91634 0.904297C8.07111 0.904297 8.22435 0.93478 8.36734 0.994006C8.51032 1.05323 8.64024 1.14004 8.74967 1.24947C8.85911 1.35891 8.94592 1.48883 9.00514 1.63181C9.06437 1.7748 9.09485 1.92804 9.09485 2.08281C9.09485 2.23757 9.06437 2.39082 9.00514 2.5338C8.94592 2.67679 8.85911 2.80671 8.74967 2.91614L3.12467 8.54114L0.833008 9.16614L1.45801 6.87448L7.08301 1.24947Z" stroke="black" stroke-opacity="0.5" stroke-width="1.25" stroke-linecap="round" stroke-linejoin="round"/>
</svg>
