<svg width="20" height="18" viewBox="0 0 20 18" fill="none" xmlns="http://www.w3.org/2000/svg">
<path fill-rule="evenodd" clip-rule="evenodd" d="M2.68826 2.6326V0.0712891H4.3958V2.6326H6.95711V4.34014H4.3958V6.90145H2.68826V4.34014H0.126953V2.6326H2.68826ZM5.24957 7.75522V5.19391H7.81088V2.6326H13.7873L15.3497 4.34014H18.0561C18.9953 4.34014 19.7637 5.10853 19.7637 6.04768V16.2929C19.7637 17.2321 18.9953 18.0005 18.0561 18.0005H4.39579C3.45664 18.0005 2.68825 17.2321 2.68825 16.2929V7.75522H5.24957ZM11.226 15.4392C13.5824 15.4392 15.4948 13.5267 15.4948 11.1703C15.4948 8.8139 13.5824 6.90146 11.226 6.90146C8.86956 6.90146 6.95712 8.81391 6.95712 11.1703C6.95712 13.5267 8.86957 15.4392 11.226 15.4392ZM8.4939 11.1703C8.4939 12.6815 9.71479 13.9024 11.226 13.9024C12.7371 13.9024 13.958 12.6815 13.958 11.1703C13.958 9.65914 12.7371 8.43824 11.226 8.43824C9.7148 8.43824 8.4939 9.65913 8.4939 11.1703Z" fill="#3B3B3B"/>
</svg>
